<svg id="visual" viewBox="0 0 900 600" width="900" height="600" xmlns="http://www.w3.org/2000/svg" xmlns:xlink="http://www.w3.org/1999/xlink" version="1.1"><path d="M0 61L13.7 62C27.3 63 54.7 65 82 66C109.3 67 136.7 67 163.8 60C191 53 218 39 245.2 32C272.3 25 299.7 25 327 30C354.3 35 381.7 45 409 52C436.3 59 463.7 63 491 60C518.3 57 545.7 47 573 42C600.3 37 627.7 37 654.8 34C682 31 709 25 736.2 27C763.3 29 790.7 39 818 44C845.3 49 872.7 49 886.3 49L900 49L900 0L886.3 0C872.7 0 845.3 0 818 0C790.7 0 763.3 0 736.2 0C709 0 682 0 654.8 0C627.7 0 600.3 0 573 0C545.7 0 518.3 0 491 0C463.7 0 436.3 0 409 0C381.7 0 354.3 0 327 0C299.7 0 272.3 0 245.2 0C218 0 191 0 163.8 0C136.7 0 109.3 0 82 0C54.7 0 27.3 0 13.7 0L0 0Z" fill="#6198ff"></path><path d="M0 127L13.7 124C27.3 121 54.7 115 82 109C109.3 103 136.7 97 163.8 97C191 97 218 103 245.2 99C272.3 95 299.7 81 327 76C354.3 71 381.7 75 409 80C436.3 85 463.7 91 491 90C518.3 89 545.7 81 573 80C600.3 79 627.7 85 654.8 83C682 81 709 71 736.2 68C763.3 65 790.7 69 818 79C845.3 89 872.7 105 886.3 113L900 121L900 47L886.3 47C872.7 47 845.3 47 818 42C790.7 37 763.3 27 736.2 25C709 23 682 29 654.8 32C627.7 35 600.3 35 573 40C545.7 45 518.3 55 491 58C463.7 61 436.3 57 409 50C381.7 43 354.3 33 327 28C299.7 23 272.3 23 245.2 30C218 37 191 51 163.8 58C136.7 65 109.3 65 82 64C54.7 63 27.3 61 13.7 60L0 59Z" fill="#4f8cff"></path><path d="M0 187L13.7 191C27.3 195 54.7 203 82 197C109.3 191 136.7 171 163.8 163C191 155 218 159 245.2 165C272.3 171 299.7 179 327 185C354.3 191 381.7 195 409 187C436.3 179 463.7 159 491 149C518.3 139 545.7 139 573 147C600.3 155 627.7 171 654.8 177C682 183 709 179 736.2 169C763.3 159 790.7 143 818 152C845.3 161 872.7 195 886.3 212L900 229L900 119L886.3 111C872.7 103 845.3 87 818 77C790.7 67 763.3 63 736.2 66C709 69 682 79 654.8 81C627.7 83 600.3 77 573 78C545.7 79 518.3 87 491 88C463.7 89 436.3 83 409 78C381.7 73 354.3 69 327 74C299.7 79 272.3 93 245.2 97C218 101 191 95 163.8 95C136.7 95 109.3 101 82 107C54.7 113 27.3 119 13.7 122L0 125Z" fill="#3c80ff"></path><path d="M0 211L13.7 216C27.3 221 54.7 231 82 224C109.3 217 136.7 193 163.8 186C191 179 218 189 245.2 196C272.3 203 299.7 207 327 215C354.3 223 381.7 235 409 227C436.3 219 463.7 191 491 179C518.3 167 545.7 171 573 180C600.3 189 627.7 203 654.8 211C682 219 709 221 736.2 215C763.3 209 790.7 195 818 199C845.3 203 872.7 225 886.3 236L900 247L900 227L886.3 210C872.7 193 845.3 159 818 150C790.7 141 763.3 157 736.2 167C709 177 682 181 654.8 175C627.7 169 600.3 153 573 145C545.7 137 518.3 137 491 147C463.7 157 436.3 177 409 185C381.7 193 354.3 189 327 183C299.7 177 272.3 169 245.2 163C218 157 191 153 163.8 161C136.7 169 109.3 189 82 195C54.7 201 27.3 193 13.7 189L0 185Z" fill="#2573ff"></path><path d="M0 289L13.7 295C27.3 301 54.7 313 82 302C109.3 291 136.7 257 163.8 250C191 243 218 263 245.2 270C272.3 277 299.7 271 327 275C354.3 279 381.7 293 409 288C436.3 283 463.7 259 491 251C518.3 243 545.7 251 573 256C600.3 261 627.7 263 654.8 269C682 275 709 285 736.2 277C763.3 269 790.7 243 818 244C845.3 245 872.7 273 886.3 287L900 301L900 245L886.3 234C872.7 223 845.3 201 818 197C790.7 193 763.3 207 736.2 213C709 219 682 217 654.8 209C627.7 201 600.3 187 573 178C545.7 169 518.3 165 491 177C463.7 189 436.3 217 409 225C381.7 233 354.3 221 327 213C299.7 205 272.3 201 245.2 194C218 187 191 177 163.8 184C136.7 191 109.3 215 82 222C54.7 229 27.3 219 13.7 214L0 209Z" fill="#0066ff"></path><path d="M0 307L13.7 317C27.3 327 54.7 347 82 340C109.3 333 136.7 299 163.8 289C191 279 218 293 245.2 297C272.3 301 299.7 295 327 299C354.3 303 381.7 317 409 315C436.3 313 463.7 295 491 286C518.3 277 545.7 277 573 281C600.3 285 627.7 293 654.8 303C682 313 709 325 736.2 319C763.3 313 790.7 289 818 291C845.3 293 872.7 321 886.3 335L900 349L900 299L886.3 285C872.7 271 845.3 243 818 242C790.7 241 763.3 267 736.2 275C709 283 682 273 654.8 267C627.7 261 600.3 259 573 254C545.7 249 518.3 241 491 249C463.7 257 436.3 281 409 286C381.7 291 354.3 277 327 273C299.7 269 272.3 275 245.2 268C218 261 191 241 163.8 248C136.7 255 109.3 289 82 300C54.7 311 27.3 299 13.7 293L0 287Z" fill="#005fee"></path><path d="M0 463L13.7 460C27.3 457 54.7 451 82 430C109.3 409 136.7 373 163.8 376C191 379 218 421 245.2 430C272.3 439 299.7 415 327 406C354.3 397 381.7 403 409 400C436.3 397 463.7 385 491 383C518.3 381 545.7 389 573 407C600.3 425 627.7 453 654.8 452C682 451 709 421 736.2 409C763.3 397 790.7 403 818 412C845.3 421 872.7 433 886.3 439L900 445L900 347L886.3 333C872.7 319 845.3 291 818 289C790.7 287 763.3 311 736.2 317C709 323 682 311 654.8 301C627.7 291 600.3 283 573 279C545.7 275 518.3 275 491 284C463.7 293 436.3 311 409 313C381.7 315 354.3 301 327 297C299.7 293 272.3 299 245.2 295C218 291 191 277 163.8 287C136.7 297 109.3 331 82 338C54.7 345 27.3 325 13.7 315L0 305Z" fill="#0059dd"></path><path d="M0 565L13.7 564C27.3 563 54.7 561 82 561C109.3 561 136.7 563 163.8 567C191 571 218 577 245.2 574C272.3 571 299.7 559 327 553C354.3 547 381.7 547 409 549C436.3 551 463.7 555 491 557C518.3 559 545.7 559 573 560C600.3 561 627.7 563 654.8 562C682 561 709 557 736.2 555C763.3 553 790.7 553 818 553C845.3 553 872.7 553 886.3 553L900 553L900 443L886.3 437C872.7 431 845.3 419 818 410C790.7 401 763.3 395 736.2 407C709 419 682 449 654.8 450C627.7 451 600.3 423 573 405C545.7 387 518.3 379 491 381C463.7 383 436.3 395 409 398C381.7 401 354.3 395 327 404C299.7 413 272.3 437 245.2 428C218 419 191 377 163.8 374C136.7 371 109.3 407 82 428C54.7 449 27.3 455 13.7 458L0 461Z" fill="#0052cc"></path><path d="M0 601L13.7 601C27.3 601 54.7 601 82 601C109.3 601 136.7 601 163.8 601C191 601 218 601 245.2 601C272.3 601 299.7 601 327 601C354.3 601 381.7 601 409 601C436.3 601 463.7 601 491 601C518.3 601 545.7 601 573 601C600.3 601 627.7 601 654.8 601C682 601 709 601 736.2 601C763.3 601 790.7 601 818 601C845.3 601 872.7 601 886.3 601L900 601L900 551L886.3 551C872.7 551 845.3 551 818 551C790.7 551 763.3 551 736.2 553C709 555 682 559 654.8 560C627.7 561 600.3 559 573 558C545.7 557 518.3 557 491 555C463.7 553 436.3 549 409 547C381.7 545 354.3 545 327 551C299.7 557 272.3 569 245.2 572C218 575 191 569 163.8 565C136.7 561 109.3 559 82 559C54.7 559 27.3 561 13.7 562L0 563Z" fill="#004cbb"></path></svg>